
<svg xmlns="http://www.w3.org/2000/svg" version="1.1" xmlns:xlink="http://www.w3.org/1999/xlink" preserveAspectRatio="none" x="0px" y="0px" width="597px" height="560px" viewBox="0 0 597 560">
<defs>
<g id="Layer0_0_FILL">
<path fill="#C9A959" stroke="none" d="
M 87.55 456.25
Q 86.35 454.4 83.65 454.4
L 61.4 454.4
Q 58.7 454.4 56 456.25 53.3 458.25 52.2 461
L 12.15 560 48.85 560 49.7 557.9 49.7 558.65 87.65 460.55
Q 88.1 459.35 88.15 458.3 88.1 457.2 87.55 456.25
M 484.4 0
L 483.55 2.1 483.55 1.35 445.6 99.45
Q 445.15 100.65 445.1 101.7 445.15 102.8 445.7 103.75 446.9 105.6 449.6 105.6
L 471.85 105.6
Q 474.55 105.6 477.25 103.75 479.95 101.75 481.05 99
L 521.1 0 484.4 0 Z"/>

<path fill="#253D5B" stroke="none" d="
M 596.2 0
L 521.1 0 481.05 99
Q 479.95 101.75 477.25 103.75 474.55 105.6 471.85 105.6
L 449.6 105.6
Q 446.9 105.6 445.7 103.75 445.15 102.8 445.1 101.7 445.15 100.65 445.6 99.45
L 483.55 1.35 483.55 2.1 484.4 0 0 0 0 560 12.15 560 52.2 461
Q 53.3 458.25 56 456.25 58.7 454.4 61.4 454.4
L 83.65 454.4
Q 86.35 454.4 87.55 456.25 88.1 457.2 88.15 458.3 88.1 459.35 87.65 460.55
L 49.7 558.65 49.7 557.9 48.85 560 596.2 560 596.2 0
M 94.7 480.9
L 96 480.9 109.3 480.9
Q 110.9 480.9 111.6 482 111.95 482.55 111.95 483.2 111.95 483.85 111.7 484.55
L 89.05 543 89.05 542.55 88.55 543.8 66.7 543.8 65.35 543.8 89.2 484.85
Q 89.85 483.2 91.45 482 93.1 480.9 94.7 480.9 Z"/>

<path fill="#FFFFFF" stroke="none" d="
M 96 480.9
Q 94.4 480.95 92.8 482 91.2 483.2 90.55 484.85
L 66.7 543.8 88.55 543.8 89.05 542.55 89.05 543 111.7 484.55
Q 111.95 483.85 111.95 483.2 111.95 482.55 111.6 482 110.9 480.9 109.3 480.9
L 96 480.9 Z"/>
</g>
</defs>

<g transform="matrix( 1, 0, 0, 1, 0,0) ">
<use xlink:href="#Layer0_0_FILL"/>
</g>
</svg>
