
<svg xmlns="http://www.w3.org/2000/svg" version="1.1" xmlns:xlink="http://www.w3.org/1999/xlink" preserveAspectRatio="none" x="0px" y="0px" width="520px" height="235px" viewBox="0 0 520 235">
<defs>
<g id="Layer0_0_FILL">
<path fill="#C9A959" stroke="none" d="
M 45.2 93.6
Q 43.8 95 43.7 97.05
L 43.7 206.7 53.9 212.15 53.9 107.3
Q 54 106.7 54.65 106.25 55.3 105.5 56.4 105.5 56.5 105.5 56.6 105.6
L 122.2 132.4 122.2 132.5
Q 122.95 133.05 122.95 134
L 122.95 181 133.2 185.2 133.2 129.4
Q 133.1 127.45 131.55 125.95 131.25 125.65 130.8 125.3
L 50.05 92
Q 49.6 92 49.05 92 46.9 92 45.2 93.6
M 512.15 234.45
Q 514.85 234.45 516.55 233.05 518.4 231.65 518.4 229.6
L 518.4 229.3
Q 518.4 227.35 516.55 225.85 514.85 224.6 512.15 224.6
L 159.45 224.6 159.45 204.65
Q 159.2 202.85 157.8 201.45 157.2 200.8 156.3 200.5
L 78.55 168.7
Q 77.7 168.35 76.7 168.35 74.45 168.35 72.85 169.85 71.35 171.45 71.35 173.5
L 71.35 224.6 53.9 224.6 53.9 219.75
Q 53.6 218.4 52.4 217.4 52.4 217.2 52.2 217.1
L 14.85 196.75
Q 12.5 195.55 12.15 194.4
L 12.15 38.05
Q 12.4 37.4 12.8 36.85 13.05 36.75 13.25 36.65
L 68.45 14.6
Q 68.65 14.6 68.85 14.6 69.85 14.6 70.6 15.2 71.35 15.95 71.35 16.95
L 71.35 95.1 81.45 99.3 81.45 5.15
Q 81.1 3.75 80.15 2.8 78.55 1.3 76.2 1.3 75.85 1.3 75.4 1.3
L 4.1 29.25
Q 3.65 29.45 3.45 29.7 2.15 30.95 1.95 32.55
L 1.95 196.05
Q 1.75 199.65 5.4 202.9 7.2 203.75 8.15 204.35
L 8.1 204.35 42.7 223.3
Q 42.85 223.4 43.05 223.5 43.5 223.95 43.65 224.6
L 43.65 234.45 512.15 234.45
M 82.1 182.3
Q 82.85 181.55 83.9 181.55
L 84.05 181.55 148.15 207.8
Q 148.25 207.9 148.45 208 149.2 208.75 149.2 209.6
L 149.2 224.6 81.45 224.6 81.45 183.05
Q 81.75 182.5 82.1 182.3 Z"/>
</g>
</defs>

<g transform="matrix( 1, 0, 0, 1, 0,0) ">
<use xlink:href="#Layer0_0_FILL"/>
</g>
</svg>
